#!OML:ASF E:\emotionWalksFemale\Project 1\Capture day 1\Session 1\Female1.ASF
:FULLY-SPECIFIED
:DEGREES
236
root 9.17576 12.6305 20.6889 -134.458 -5.0415 -178.405
lowerback 38.2511 2.2343 0.910187
upperback 2.3121 2.33762 0.417438
thorax -16.4592 0.545513 -0.992404
lowerneck -10.3285 -3.69082 -7.15984
upperneck -24.5783 -6.24954 9.37127
head -5.25702 -4.61899 4.43393
rclavicle -2.42517e-014 1.78906e-015
rhumerus -23.2839 12.0732 -75.4111
rradius 42.1032
rwrist 11.5753
rhand -15.041 -49.795
rfingers 7.12502
rthumb 11.1252 -79.4801
lclavicle -2.42517e-014 1.78906e-015
lhumerus -22.6294 -4.78749 83.7351
lradius 38.1997
lwrist 5.78255
lhand -21.2241 -59.3193
lfingers 7.12502
lthumb 5.15798 -29.402
rfemur -79.1038 0.979441 32.9421
rtibia 87.4471
rfoot -37.0058 -20.6322
rtoes -0.964438
lfemur -87.1081 3.80194 -27.1988
ltibia 91.713
lfoot -35.3464 6.49818
ltoes -25.1098
237
root 9.17757 12.6725 20.6096 -134.87 -5.05906 -178.526
lowerback 37.8564 2.1607 1.02987
upperback 2.33673 2.277 0.270189
thorax -16.2679 0.516375 -1.18563
lowerneck -10.3379 -3.6793 -7.02638
upperneck -24.6475 -6.25104 9.41303
head -5.27924 -4.63913 4.42842
rclavicle -1.59028e-015 1.64991e-014
rhumerus -20.2359 10.6317 -75.098
rradius 40.5477
rwrist 12.544
rhand -14.6994 -49.9282
rfingers 7.12502
rthumb 11.4547 -79.5952
lclavicle -1.59028e-015 1.64991e-014
lhumerus -18.1038 -3.83468 82.8939
lradius 36.0936
lwrist 4.23901
lhand -21.6335 -59.6231
lfingers 7.12502
lthumb 4.76264 -29.6967
rfemur -77.9749 0.822749 32.7977
rtibia 86.9473
rfoot -36.9075 -20.7035
rtoes -1.1858
lfemur -85.6008 3.56497 -26.7385
ltibia 90.9226
lfoot -35.6062 6.35315
ltoes -23.5987
238
root 9.17995 12.7215 20.5334 -135.356 -5.10084 -178.682
lowerback 37.6066 2.09049 1.07432
upperback 2.35843 2.19554 0.195164
thorax -16.1423 0.481486 -1.25107
lowerneck -10.689 -3.71013 -7.04845
upperneck -24.4939 -6.2882 9.50622
head -5.16816 -4.66148 4.44226
rclavicle -3.97569e-015 6.75868e-015
rhumerus -17.0759 9.89015 -74.6366
rradius 39.3631
rwrist 13.0007
rhand -15.1363 -50.4892
rfingers 7.12502
rthumb 11.0333 -80.1793
lclavicle -3.97569e-015 6.75868e-015
lhumerus -13.8311 -2.58237 82.3174
lradius 34.826
lwrist 3.10027
lhand -22.0167 -59.5796
lfingers 7.12502
lthumb 4.39265 -29.6452
rfemur -76.8252 0.594846 32.6862
rtibia 86.477
rfoot -36.7254 -20.7989
rtoes -0.903289
lfemur -84.0055 3.26911 -26.2154
ltibia 90.0982
lfoot -36.228 5.5976
ltoes -22.1536
239
root 9.18365 12.7664 20.4547 -135.825 -5.09266 -178.774
lowerback 37.1536 2.12014 1.0404
upperback 2.45212 2.21508 0.198312
thorax -15.8549 0.498522 -1.22955
lowerneck -11.0991 -3.80219 -7.29649
upperneck -24.3186 -6.37745 9.70134
head -5.02571 -4.69623 4.52263
rclavicle -1.98785e-015 4.77083e-015
rhumerus -13.7864 9.66374 -73.8275
rradius 39.2789
rwrist 11.5587
rhand -14.9249 -51.5734
rfingers 7.12502
rthumb 11.2372 -81.2524
lclavicle -1.98785e-015 4.77083e-015
lhumerus -9.06121 -2.18579 81.7478
lradius 33.8109
lwrist 3.68435
lhand -22.157 -59.3024
lfingers 7.12502
lthumb 4.25719 -29.3652
rfemur -75.7291 0.476623 32.5913
rtibia 86.0363
rfoot -36.3663 -20.8803
rtoes 0.0727413
lfemur -82.4868 3.0829 -25.7447
ltibia 89.3212
lfoot -36.6754 5.57304
ltoes -23.7358
240
root 9.18951 12.8077 20.3727 -136.373 -5.03597 -178.824
lowerback 36.5932 2.21306 0.910135
upperback 2.63829 2.27186 0.20262
thorax -15.5344 0.537191 -1.17722
lowerneck -11.2853 -3.82628 -7.41814
upperneck -24.2919 -6.40202 9.80296
head -4.97858 -4.70819 4.56797
rclavicle -1.55052e-014 6.55989e-015
rhumerus -10.6087 9.59131 -72.9191
rradius 39.7482
rwrist 10.1547
rhand -15.3034 -52.3068
rfingers 7.12502
rthumb 10.8721 -82.0054
lclavicle -1.55052e-014 6.55989e-015
lhumerus -4.37577 -1.59553 81.3626
lradius 33.3837
lwrist 4.5856
lhand -22.0632 -58.7059
lfingers 7.12502
lthumb 4.34778 -28.7705
rfemur -74.5189 0.473489 32.4495
rtibia 85.619
rfoot -36.111 -20.9604
rtoes 1.0083
lfemur -80.924 3.0053 -25.3494
ltibia 88.5735
lfoot -36.7154 5.99994
ltoes -25.4959
241
root 9.19392 12.8526 20.291 -137.073 -5.11763 -178.93
lowerback 36.3783 2.21977 0.897119
upperback 2.69105 2.27044 0.206484
thorax -15.3884 0.539146 -1.16038
lowerneck -11.5233 -3.8705 -7.4322
upperneck -24.0938 -6.45866 9.78899
head -4.87535 -4.72287 4.54628
rclavicle -9.93923e-015 -5.1684e-015
rhumerus -7.38567 9.94599 -71.8637
rradius 40.5583
rwrist 8.42431
rhand -15.5463 -52.9238
rfingers 7.12502
rthumb 10.6378 -82.6345
lclavicle -9.93923e-015 -5.1684e-015
lhumerus 0.0722818 -1.0518 81.1022
lradius 33.5283
lwrist 5.29943
lhand -22.126 -58.2416
lfingers 7.12502
lthumb 4.28708 -28.305
rfemur -73.0968 0.319479 32.3218
rtibia 85.1971
rfoot -36.1705 -20.8082
rtoes 2.64145
lfemur -79.2206 2.83639 -25.0336
ltibia 87.8048
lfoot -36.4318 6.75791
ltoes -26.8207
242
root 9.192 12.8991 20.2105 -137.829 -5.29747 -179.1
lowerback 36.3163 2.09022 1.00306
upperback 2.69855 2.1409 0.182921
thorax -15.3527 0.476061 -1.18381
lowerneck -11.8695 -3.88828 -7.44082
upperneck -23.7134 -6.46609 9.74809
head -4.70365 -4.69973 4.50269
rclavicle -7.95139e-016 9.93923e-016
rhumerus -3.80388 10.7508 -70.4911
rradius 41.5171
rwrist 6.68264
rhand -13.9115 -53.296
rfingers 7.12502
rthumb 12.2144 -82.9193
lclavicle -7.95139e-016 9.93923e-016
lhumerus 4.28814 -0.606469 80.7873
lradius 33.9638
lwrist 5.84655
lhand -22.0512 -58.5861
lfingers 7.12502
lthumb 4.35931 -28.651
rfemur -71.6382 -0.100366 32.2467
rtibia 84.7755
rfoot -36.1752 -20.5363
rtoes 3.87337
lfemur -77.4695 2.54893 -24.841
ltibia 87.0412
lfoot -36.4883 7.22459
ltoes -28.865
243
root 9.19087 12.9383 20.1287 -138.559 -5.44165 -179.27
lowerback 36.1126 2.01375 1.07099
upperback 2.70696 2.07164 0.174424
thorax -15.2613 0.445277 -1.1958
lowerneck -12.0837 -3.93207 -7.57844
upperneck -23.3459 -6.49266 9.68038
head -4.5527 -4.66828 4.47677
rclavicle 1.03368e-014 2.5842e-015
rhumerus -0.03973 11.2311 -68.7038
rradius 42.5704
rwrist 6.15905
rhand -17.5484 -54.2842
rfingers 7.12502
rthumb 8.70616 -84.0847
lclavicle 1.03368e-014 2.5842e-015
lhumerus 9.32042 -1.35076 79.898
lradius 34.1152
lwrist 7.38554
lhand -21.8177 -58.6332
lfingers 7.12502
lthumb 4.58484 -28.7028
rfemur -70.2713 -0.416013 32.128
rtibia 84.3243
rfoot -35.6176 -20.9385
rtoes 2.09866
lfemur -75.8142 2.34379 -24.7825
ltibia 86.3082
lfoot -36.4155 8.07651
ltoes -31.6289
244
root 9.19355 12.9858 20.0413 -139.353 -5.61389 -179.421
lowerback 35.8567 1.97391 1.08505
upperback 2.76108 2.02877 0.219921
thorax -15.0984 0.429407 -1.12965
lowerneck -12.256 -4.022 -7.80455
upperneck -22.9918 -6.55925 9.70337
head -4.40189 -4.65492 4.49554
rclavicle -1.31198e-014 -6.75868e-015
rhumerus 3.93764 11.4627 -66.6605
rradius 43.8718
rwrist 5.65012
rhand -17.0279 -54.5809
rfingers 7.12502
rthumb 9.20841 -84.3598
lclavicle -1.31198e-014 -6.75868e-015
lhumerus 13.9798 -2.47763 78.6567
lradius 34.9286
lwrist 9.13618
lhand -22.2078 -59.7855
lfingers 7.12502
lthumb 4.20813 -29.8473
rfemur -68.7518 -0.610266 31.9967
rtibia 83.7505
rfoot -34.5688 -22.05
rtoes -1.9891
lfemur -74.1128 2.19739 -24.7358
ltibia 85.5341
lfoot -36.1054 8.31351
ltoes -31.3984
245
root 9.19421 13.0614 19.9437 -140.245 -5.71229 -179.461
lowerback 35.693 1.9467 1.1136
upperback 2.83151 2.00401 0.296037
thorax -14.9526 0.417127 -1.04625
lowerneck -12.3798 -4.12126 -8.0872
upperneck -22.7103 -6.65234 9.68897
head -4.28029 -4.65695 4.51705
rclavicle -9.54166e-015 2.66371e-014
rhumerus 8.11065 11.7724 -64.3995
rradius 44.8094
rwrist 5.03083
rhand -17.1011 -55.5103
rfingers 7.12502
rthumb 9.13776 -85.2924
lclavicle -9.54166e-015 2.66371e-014
lhumerus 18.5808 -2.99887 77.5029
lradius 35.6887
lwrist 10.0139
lhand -22.6463 -60.8691
lfingers 7.12502
lthumb 3.78469 -30.9229
rfemur -66.8885 -0.993084 32.0042
rtibia 82.9021
rfoot -33.3882 -22.8885
rtoes -6.06214
lfemur -72.1703 2.16086 -24.5994
ltibia 84.6267
lfoot -36.0437 7.49701
ltoes -26.2123
